<svg width="173" height="43" viewBox="0 0 173 43" fill="none" xmlns="http://www.w3.org/2000/svg">
<path fill-rule="evenodd" clip-rule="evenodd" d="M52.34 14.571H48.645L50.415 6.56401H50.467L52.34 14.571ZM46.823 21.524L47.875 17.419H53.16L54.187 21.524H58.267L53.238 3.00001H48.132L43 21.524H46.823ZM68.354 21.573C69.997 21.573 74.076 21.369 74.076 16.672C74.076 14.133 73.358 12.362 70.612 11.977V11.927C72.717 11.516 73.768 9.97601 73.768 7.84601C73.768 3.89501 71.332 3.04801 68.379 3.04801H61.503V21.572H68.354V21.573ZM65.377 5.89601H67.763C69.072 5.89601 69.997 6.89601 69.997 8.25601C69.997 10.052 68.816 10.616 67.969 10.616H65.378V5.89601H65.377ZM65.377 13.465H67.636C69.585 13.465 70.202 14.466 70.202 16.109C70.202 18.699 68.354 18.725 67.533 18.725H65.377V13.465ZM82.217 21.573V8.02501H82.267L87.322 21.573H92.429V3.04801H88.811V15.877H88.759L83.832 3.04801H78.598V21.573H82.217ZM98.51 13.392L100.995 10.905L98.509 8.42701L96.03 10.905L98.51 13.392ZM111.578 14.62H107.883L109.653 6.61301H109.705L111.578 14.62ZM106.061 21.573L107.113 17.468H112.398L113.425 21.573H117.506L112.476 3.04901H107.37L102.238 21.573H106.061ZM124.466 21.573V7.28101H124.516L127.905 21.573H131.599L135.166 7.28101H135.216V21.573H138.99V3.04801H132.959L129.881 15.646H129.829L126.929 3.04801H120.695V21.573H124.466ZM147.947 13.901H148.948C151.925 13.901 151.719 15.773 151.719 17.981C151.719 19.188 151.617 20.444 152.13 21.573H155.927C155.567 20.805 155.491 17.313 155.491 16.133C155.491 12.797 152.976 12.593 152.129 12.49V12.44C154.643 12.028 155.567 10.258 155.567 7.89701C155.567 4.74101 153.873 3.04801 151.23 3.04801H144.072V21.573H147.947V13.901ZM147.947 5.89601H149.665C150.897 5.89601 151.641 6.56301 151.641 8.33201C151.641 9.51201 151.206 11.052 149.665 11.052H147.947V5.89501V5.89601ZM166.059 21.882C172.448 21.882 172.448 17.161 172.448 12.311C172.448 7.41001 172.448 2.73901 166.058 2.73901C159.668 2.73901 159.668 7.40901 159.668 12.311C159.668 17.16 159.668 21.881 166.058 21.881L166.059 21.882ZM166.058 19.111C163.878 19.111 163.595 17.059 163.595 12.311C163.595 7.56601 163.877 5.51101 166.059 5.51101C168.239 5.51101 168.521 7.56701 168.521 12.311C168.521 17.058 168.238 19.111 166.059 19.111" fill="#939393"/>
<path fill-rule="evenodd" clip-rule="evenodd" d="M0 0V27L15.999 43L23.999 26.667L32 27V0H0Z" fill="#009286"/>
<path fill-rule="evenodd" clip-rule="evenodd" d="M16 43L32.001 26.998L16 11V43Z" fill="#F3C000"/>
</svg>
